<svg data-v-0dd9719b="" version="1.0" xmlns="http://www.w3.org/2000/svg" xmlns:xlink="http://www.w3.org/1999/xlink" width="100%" height="100%" viewBox="0 0 340.000000 250.000000" preserveAspectRatio="xMidYMid meet" color-interpolation-filters="sRGB" style="margin: auto;"> <rect data-v-0dd9719b="" x="0" y="0" width="100%" height="100%" fill="#fff" fill-opacity="1" class="background"></rect> <rect data-v-0dd9719b="" x="0" y="0" width="100%" height="100%" fill="url(#watermark)" fill-opacity="1" class="watermarklayer"></rect> <g data-v-0dd9719b="" fill="#333" class="icon-text-wrapper icon-svg-group iconsvg" transform="translate(45.040000915527344,98.18723487854004)"><g class="iconsvg-imagesvg" transform="translate(0,0)"><g><rect fill="#333" fill-opacity="0" stroke-width="2" x="0" y="0" width="60" height="53.62553290373323" class="image-rect"></rect> <svg x="0" y="0" width="60" height="53.62553290373323" filtersec="colorsb324908188" class="image-svg-svg primary" style="overflow: visible;"><svg xmlns="http://www.w3.org/2000/svg" viewBox="0.010096341371536255 -0.004509272985160351 183.74807739257812 164.2257843017578"><path d="M65.18 0h17.16c1 0 1.06 0 .56.92L65.34 32.55l-16 28.85Q38.18 81.44 27 101.48q-4.26 7.65-8.51 15.33c-.17.3-.26.79-.66.76s-.38-.48-.53-.77Q8.77 100.62.18 84.43a1.48 1.48 0 0 1 .16-1.62l10.81-19.1q13.5-23.86 27-47.76c2.84-5 5.7-10 8.52-15.1A1.47 1.47 0 0 1 48.12 0h17.06z" fill="#20adee"></path><path d="M166 46.66l3.12 5.85q7.21 13.64 14.45 27.28a1.56 1.56 0 0 1-.14 1.7q-6.53 11.57-13 23.14l-24.33 43.21q-4.38 7.77-8.74 15.55a1.3 1.3 0 0 1-1.27.83h-34.52c-1.12 0-1.11 0-.59-1q9.24-16.62 18.46-33.25 8-14.43 16.07-28.85 9.85-17.72 19.7-35.46l10.14-18.24c.11-.26.2-.61.65-.76z" fill="#f58220"></path><path d="M23.07 128.85a57.87 57.87 0 0 1 2.93-5.28q16.27-28.66 32.57-57.33L89 12.75c.15-.25.3-.5.44-.75.42.08.5.44.66.71q8.5 14.53 17 29.09a1.57 1.57 0 0 1 0 1.78q-16.82 30.77-33.6 61.57l-12.06 22.11c-2.53.12-5.07.28-7.61.38-4 .16-8.08.24-12.11.45-1.5.08-3 .09-4.49.19-4.72.32-9.44.48-14.16.57z" fill="#0c56a7"></path><path d="M160.69 35.29c.08.41-.2.68-.37 1l-17.63 31q-8.82 15.51-17.5 30.84-8.84 15.54-17.69 31.07c-4.14 7.26-8.25 14.54-12.39 21.81-.91 1.59-.78 1.6-1.68.07Q85 136.72 76.65 122.4a1.49 1.49 0 0 1 0-1.7Q88 100 99.36 79.18t22.8-41.8c.06-.11.14-.22.2-.33.92.05 1.82-.16 2.73-.18 2.57-.08 5.13-.29 7.7-.37 4.78-.14 9.56-.38 14.34-.62 4.52-.22 9.04-.39 13.56-.59z" fill="#fdca06"></path><path d="M23.07 128.85c4.72-.09 9.44-.25 14.16-.57 1.49-.1 3-.11 4.49-.19 4-.21 8.08-.29 12.11-.45 2.54-.1 5.08-.26 7.61-.38l21.42 35.94c.54.91.51 1-.52 1H43.11a1.33 1.33 0 0 1-1.37-.8q-8.22-15.06-16.47-30.08l-1.93-3.53c-.15-.32-.41-.57-.27-.94z" fill="#20adee"></path><path d="M160.69 35.29c-4.52.2-9 .37-13.56.59-4.78.24-9.56.48-14.34.62-2.57.08-5.13.29-7.7.37-.91 0-1.81.23-2.73.18L101 1.11c-.55-.93-.54-.95.54-.95h39.2a1.2 1.2 0 0 1 1.26.66q9.24 16.93 18.53 33.84c.08.2.25.34.16.63z" fill="#f58220"></path></svg></svg> <!----></g></g> <g transform="translate(67,13.362765312194824)"><g data-gra="path-name" fill-rule="" class="tp-name iconsvg-namesvg"><g transform="scale(1)"><g><path d="M0 0L5.56-26.16 14.5-26.16 9.64-3.46 18-3.46 17.3 0 0 0ZM34.35-26.16L28.75 0 19.85 0 25.41-26.16 34.35-26.16ZM33.28 0L38.84-26.16 56.18-26.16 55.52-23.03 47.08-23.03 45.47-15.49 52.52-15.49 51.86-12.32 44.81-12.32 42.18 0 33.28 0ZM53.51 0L59.07-26.16 76.41-26.16 75.75-23.03 67.35-23.03 65.62-15.08 72.66-15.08 72-11.99 64.96-11.99 63.06-3.17 71.46-3.17 70.85 0 53.51 0ZM85.55-11.29L87.45-11.29Q88.68-11.29 89.53-12.32 90.37-13.35 90.93-14.83 91.48-16.31 91.73-17.92 91.98-19.52 91.98-20.72L91.98-20.72Q91.98-21.83 91.61-22.59 91.24-23.35 90-23.35L90-23.35 88.15-23.35 85.55-11.29ZM87.32-8.65L84.97-8.65 83.12 0 74.22 0 79.78-26.16 89.3-26.16Q91.65-26.16 93.58-25.91 95.52-25.66 96.92-24.92 98.32-24.18 99.1-22.8 99.89-21.42 99.89-19.11L99.89-19.11Q99.89-16.97 99.21-15.05 98.53-13.14 97.02-11.72 95.52-10.3 93.13-9.47 90.74-8.65 87.32-8.65L87.32-8.65ZM113.44-26.16L107.84 0 98.94 0 104.5-26.16 113.44-26.16ZM112.37 0L117.93-26.16 126.86-26.16 122-3.46 130.37-3.46 129.67 0 112.37 0ZM147.5-26.57L147.5-26.57Q151.04-26.57 153.25-25.66 155.45-24.76 156.73-22.86L156.73-22.86Q157.55-21.58 158-19.98 158.46-18.37 158.46-16.27L158.46-16.27Q158.46-14.46 158.13-12.65 157.8-10.83 157.2-9.16 156.6-7.5 155.76-6.03 154.92-4.57 153.89-3.46L153.89-3.46Q151.95-1.36 149.42-0.51 146.88 0.33 143.18 0.33L143.18 0.33Q139.59 0.33 137.41-0.41 135.23-1.15 133.95-2.8L133.95-2.8Q133.04-3.95 132.53-5.73 132.01-7.5 132.01-10.17L132.01-10.17Q132.01-14.75 133.64-18.35 135.27-21.95 138.27-24.05L138.27-24.05Q140.09-25.33 142.31-25.95 144.54-26.57 147.5-26.57ZM142.85-2.55L142.85-2.55Q143.79-2.55 144.64-3.4 145.48-4.24 146.2-5.66 146.92-7.08 147.52-8.9 148.12-10.71 148.53-12.65 148.94-14.58 149.17-16.5 149.4-18.41 149.4-19.98L149.4-19.98Q149.4-22.12 148.96-22.92 148.53-23.73 147.71-23.73L147.71-23.73Q146.76-23.73 145.89-22.9 145.03-22.08 144.27-20.7 143.51-19.32 142.91-17.53 142.31-15.73 141.88-13.84 141.45-11.95 141.22-10.09 140.99-8.24 140.99-6.67L140.99-6.67Q140.99-4.32 141.51-3.44 142.02-2.55 142.85-2.55ZM182.92-26.16L182.22-23.03 175.59-23.03 170.69 0 161.79 0 166.7-23.03 160.15-23.03 160.89-26.16 182.92-26.16Z" transform="translate(0, 26.56999969482422)"></path></g> <!----> <!----> <!----> <!----> <!----> <!----> <!----></g></g> <!----></g></g><defs v-gra="od"></defs></svg>